<svg width="24" height="24" viewBox="0 0 24 24" fill="none" xmlns="http://www.w3.org/2000/svg">
<path d="M5 21C9.21 16.249 13.941 9.948 21 14.673" stroke="black" stroke-width="1.5" stroke-linecap="round" stroke-linejoin="round"/>
<path d="M21 12.5C21 16.978 21 19.218 19.609 20.609C18.218 22 15.979 22 11.5 22C7.022 22 4.782 22 3.391 20.609C2 19.218 2 16.979 2 12.5C2 8.022 2 5.782 3.391 4.391C4.782 3 7.021 3 11.5 3M22 9L18.5 5.5M18.5 5.5L15 2M18.5 5.5L22 2M18.5 5.5L15 9" stroke="black" stroke-width="1.5" stroke-linecap="round" stroke-linejoin="round"/>
</svg>
