<svg width="151" height="151" viewBox="0 0 151 151" fill="none" xmlns="http://www.w3.org/2000/svg">
<rect width="151" height="151" fill="#F8F7F3"/>
<path d="M29.912 92.48C26.776 92.48 23.832 91.968 21.08 90.944C18.328 89.888 15.944 88.384 13.928 86.432C13.448 85.952 13.208 85.408 13.208 84.8C13.208 84.096 13.528 83.424 14.168 82.784C14.68 82.272 15.24 82.016 15.848 82.016C16.488 82.016 17.256 82.384 18.152 83.12C19.656 84.496 21.432 85.568 23.48 86.336C25.56 87.072 27.704 87.44 29.912 87.44C32.024 87.44 33.672 87.088 34.856 86.384C36.04 85.648 36.632 84.624 36.632 83.312C36.632 81.936 35.992 80.832 34.712 80C33.432 79.136 31.256 78.368 28.184 77.696C23.352 76.64 19.832 75.248 17.624 73.52C15.448 71.792 14.36 69.568 14.36 66.848C14.36 65.12 14.936 63.584 16.088 62.24C17.24 60.864 18.84 59.808 20.888 59.072C22.968 58.304 25.336 57.92 27.992 57.92C30.968 57.92 33.608 58.416 35.912 59.408C38.248 60.368 40.024 61.728 41.24 63.488C41.656 64.16 41.864 64.736 41.864 65.216C41.832 66.016 41.432 66.704 40.664 67.28C40.248 67.568 39.768 67.712 39.224 67.712C38.232 67.712 37.416 67.328 36.776 66.56C35.848 65.44 34.6 64.56 33.032 63.92C31.496 63.28 29.816 62.96 27.992 62.96C25.72 62.96 23.944 63.312 22.664 64.016C21.416 64.688 20.792 65.632 20.792 66.848C20.792 68.064 21.4 69.072 22.616 69.872C23.864 70.64 26.008 71.376 29.048 72.08C32.408 72.88 35.112 73.792 37.16 74.816C39.208 75.808 40.696 76.992 41.624 78.368C42.584 79.744 43.064 81.392 43.064 83.312C43.064 85.136 42.52 86.752 41.432 88.16C40.344 89.536 38.808 90.608 36.824 91.376C34.84 92.112 32.536 92.48 29.912 92.48ZM63.0054 92.48C62.0454 92.48 61.2774 92.224 60.7014 91.712C60.1254 91.2 59.8374 90.496 59.8374 89.6V69.824C59.8374 66.112 60.8934 63.2 63.0054 61.088C65.1174 58.976 68.0294 57.92 71.7414 57.92C73.5334 57.92 75.2134 58.368 76.7814 59.264C78.3814 60.128 79.7574 61.376 80.9094 63.008C82.0294 61.344 83.3734 60.08 84.9414 59.216C86.5414 58.352 88.2694 57.92 90.1254 57.92C93.8374 57.92 96.7494 58.976 98.8614 61.088C100.973 63.2 102.029 66.112 102.029 69.824V89.6C102.029 90.464 101.725 91.168 101.117 91.712C100.541 92.224 99.7734 92.48 98.8134 92.48C97.8534 92.48 97.0854 92.224 96.5094 91.712C95.9334 91.2 95.6454 90.496 95.6454 89.6V69.824C95.6454 67.392 95.1974 65.648 94.3014 64.592C93.4054 63.504 91.9334 62.96 89.8854 62.96C88.0294 62.96 86.5894 63.552 85.5654 64.736C84.5734 65.92 84.0774 67.616 84.0774 69.824V89.6C84.0774 90.496 83.7894 91.2 83.2134 91.712C82.6374 92.224 81.8694 92.48 80.9094 92.48C79.9494 92.48 79.1814 92.224 78.6054 91.712C78.0614 91.2 77.7894 90.496 77.7894 89.6V69.824C77.7894 67.68 77.2774 66 76.2534 64.784C75.2294 63.568 73.8054 62.96 71.9814 62.96C69.9334 62.96 68.4614 63.504 67.5654 64.592C66.6694 65.648 66.2214 67.392 66.2214 69.824V89.6C66.2214 90.464 65.9174 91.168 65.3094 91.712C64.7334 92.224 63.9654 92.48 63.0054 92.48ZM107.799 92.32C107.138 92.32 106.626 92.1493 106.263 91.808C105.901 91.4667 105.719 90.9973 105.719 90.4V77.92C105.719 77.3013 105.89 76.832 106.231 76.512C106.594 76.1707 107.095 76 107.735 76C108.375 76 108.877 76.1707 109.239 76.512C109.602 76.8533 109.783 77.3227 109.783 77.92V78.976C110.445 78.1227 111.213 77.472 112.087 77.024C112.983 76.5547 113.943 76.32 114.967 76.32H115.671C116.354 76.32 116.877 76.4693 117.239 76.768C117.623 77.0453 117.815 77.4507 117.815 77.984C117.815 78.5173 117.623 78.9333 117.239 79.232C116.877 79.5093 116.354 79.648 115.671 79.648H114.583C113.154 79.648 112.013 80.1067 111.159 81.024C110.327 81.92 109.911 83.1573 109.911 84.736V90.4C109.911 90.9973 109.719 91.4667 109.335 91.808C108.951 92.1493 108.439 92.32 107.799 92.32ZM120.933 92.32C120.272 92.32 119.76 92.1493 119.397 91.808C119.035 91.4667 118.853 90.9973 118.853 90.4V77.92C118.853 77.3013 119.024 76.832 119.365 76.512C119.728 76.1707 120.229 76 120.869 76C121.509 76 122.011 76.1707 122.373 76.512C122.736 76.8533 122.917 77.3227 122.917 77.92V78.848C124.432 76.9493 126.501 76 129.125 76C131.173 76 132.784 76.6507 133.957 77.952C135.152 79.232 135.749 80.9813 135.749 83.2V90.4C135.749 90.9973 135.557 91.4667 135.173 91.808C134.789 92.1493 134.277 92.32 133.637 92.32C132.976 92.32 132.464 92.1493 132.101 91.808C131.739 91.4667 131.557 90.9973 131.557 90.4V83.2C131.557 81.984 131.259 81.0347 130.661 80.352C130.064 79.6693 129.232 79.328 128.165 79.328C126.544 79.328 125.285 79.808 124.389 80.768C123.493 81.7067 123.045 83.0293 123.045 84.736V90.4C123.045 90.9973 122.853 91.4667 122.469 91.808C122.085 92.1493 121.573 92.32 120.933 92.32Z" fill="#016D94"/>
<path d="M137 65.5C137 67.1811 136.532 68.8245 135.655 70.2223C134.777 71.6202 133.53 72.7096 132.071 73.353C130.612 73.9963 129.006 74.1647 127.457 73.8366C125.908 73.5086 124.485 72.699 123.368 71.5102L123.303 71.4351L115.337 61.861C114.663 61.1573 113.809 60.681 112.882 60.4918C111.955 60.3027 110.997 60.4091 110.126 60.7978C109.256 61.1866 108.513 61.8402 107.99 62.6767C107.468 63.5133 107.189 64.4954 107.189 65.5C107.189 66.5046 107.468 67.4867 107.99 68.3233C108.513 69.1598 109.256 69.8134 110.126 70.2022C110.997 70.5909 111.955 70.6973 112.882 70.5082C113.809 70.319 114.663 69.8427 115.337 69.139L115.746 68.646C115.885 68.4786 116.054 68.342 116.243 68.244C116.431 68.1459 116.636 68.0884 116.846 68.0746C117.055 68.0609 117.265 68.0912 117.464 68.1638C117.662 68.2365 117.846 68.35 118.003 68.498C118.16 68.646 118.289 68.8255 118.381 69.0263C118.473 69.2271 118.527 69.4452 118.54 69.6682C118.553 69.8912 118.524 70.1147 118.456 70.326C118.388 70.5373 118.281 70.7323 118.142 70.8997L117.696 71.4351L117.631 71.5102C116.514 72.6987 115.091 73.508 113.542 73.8358C111.993 74.1636 110.388 73.9952 108.929 73.3519C107.47 72.7086 106.223 71.6192 105.346 70.2216C104.468 68.824 104 67.1809 104 65.5C104 63.8191 104.468 62.176 105.346 60.7784C106.223 59.3808 107.47 58.2914 108.929 57.6481C110.388 57.0048 111.993 56.8364 113.542 57.1642C115.091 57.492 116.514 58.3013 117.631 59.4898L117.696 59.5649L125.663 69.139C126.336 69.8427 127.19 70.319 128.117 70.5082C129.044 70.6973 130.002 70.5909 130.873 70.2022C131.743 69.8134 132.486 69.1598 133.009 68.3233C133.531 67.4867 133.81 66.5046 133.81 65.5C133.81 64.4954 133.531 63.5133 133.009 62.6767C132.486 61.8402 131.743 61.1866 130.873 60.7978C130.002 60.4091 129.044 60.3027 128.117 60.4918C127.19 60.681 126.336 61.1573 125.663 61.861L125.253 62.354C125.114 62.5214 124.945 62.658 124.756 62.7561C124.568 62.8541 124.363 62.9116 124.153 62.9254C123.944 62.9391 123.734 62.9088 123.535 62.8362C123.337 62.7635 123.153 62.65 122.996 62.502C122.839 62.354 122.711 62.1745 122.618 61.9737C122.526 61.7729 122.472 61.5548 122.459 61.3318C122.446 61.1088 122.475 60.8853 122.543 60.674C122.611 60.4627 122.718 60.2677 122.857 60.1003L123.303 59.5649L123.368 59.4898C124.485 58.301 125.908 57.4914 127.457 57.1634C129.006 56.8353 130.612 57.0037 132.071 57.647C133.53 58.2904 134.777 59.3799 135.655 60.7777C136.532 62.1755 137 63.8189 137 65.5Z" fill="#016D94"/>
<path d="M50.5 63.0625C51.4827 63.0625 52.4222 62.6605 53.1125 61.9498C53.8024 61.2397 54.1875 60.2795 54.1875 59.2812C54.1875 58.283 53.8024 57.3228 53.1125 56.6127C52.4222 55.902 51.4827 55.5 50.5 55.5C49.5173 55.5 48.5778 55.902 47.8875 56.6127C47.1976 57.3228 46.8125 58.283 46.8125 59.2812C46.8125 60.2795 47.1976 61.2397 47.8875 61.9498C48.5778 62.6605 49.5173 63.0625 50.5 63.0625ZM45.75 70.7656V89.3594C45.75 89.9225 45.9672 90.4654 46.3582 90.8679C46.7496 91.2708 47.2837 91.5 47.8438 91.5C48.4038 91.5 48.9379 91.2708 49.3293 90.8679C49.7203 90.4654 49.9375 89.9225 49.9375 89.3594V78.9688C49.9375 78.8067 50.0002 78.6541 50.1073 78.5437C50.214 78.4339 50.3556 78.375 50.5 78.375C50.6444 78.375 50.786 78.4339 50.8927 78.5437C50.9998 78.6541 51.0625 78.8067 51.0625 78.9688V89.3594C51.0625 89.9225 51.2797 90.4654 51.6707 90.8679C52.0621 91.2708 52.5962 91.5 53.1562 91.5C53.7163 91.5 54.2504 91.2708 54.6418 90.8679C55.0328 90.4654 55.25 89.9225 55.25 89.3594V70.7656C55.25 70.7486 55.2567 70.7351 55.2642 70.7273C55.2713 70.7201 55.2777 70.7188 55.2812 70.7188C55.2848 70.7188 55.2912 70.7201 55.2983 70.7273C55.3058 70.7351 55.3125 70.7486 55.3125 70.7656V76.2344C55.3125 76.7975 55.5297 77.3404 55.9207 77.7429C56.3121 78.1458 56.8462 78.375 57.4062 78.375C57.9663 78.375 58.5004 78.1458 58.8918 77.7429C59.2828 77.3404 59.5 76.7975 59.5 76.2344V70.2188C59.5 68.3503 58.7791 66.5555 57.4914 65.23C56.2033 63.904 54.4531 63.1562 52.625 63.1562H48.375C46.5469 63.1562 44.7967 63.904 43.5086 65.23C42.2209 66.5555 41.5 68.3503 41.5 70.2188V76.2344C41.5 76.7975 41.7172 77.3404 42.1082 77.7429C42.4996 78.1458 43.0337 78.375 43.5938 78.375C44.1538 78.375 44.6879 78.1458 45.0793 77.7429C45.4703 77.3404 45.6875 76.7975 45.6875 76.2344V70.7656C45.6875 70.7486 45.6942 70.7351 45.7017 70.7273C45.7088 70.7201 45.7152 70.7188 45.7188 70.7188C45.7223 70.7188 45.7287 70.7201 45.7358 70.7273C45.7433 70.7351 45.75 70.7486 45.75 70.7656Z" fill="#F8F7F3" stroke="#016D94"/>
</svg>
