<svg width="22" height="20" viewBox="0 0 22 20" fill="none" xmlns="http://www.w3.org/2000/svg">
<path fill-rule="evenodd" clip-rule="evenodd" d="M6.11206 11.887C6.35401 12.129 6.6499 12.25 7 12.25C7.3501 12.25 7.64575 12.1293 7.88696 11.888C8.12842 11.6467 8.24927 11.3507 8.25 11C8.25073 10.6494 8.12988 10.3537 7.88794 10.113C7.646 9.87232 7.3501 9.75135 7 9.75001C6.6499 9.74866 6.35425 9.86933 6.11304 10.112C5.87158 10.3547 5.75073 10.6507 5.75 11C5.74927 11.3494 5.87012 11.645 6.11206 11.887ZM12.1121 11.887C12.354 12.129 12.6499 12.25 13 12.25C13.3501 12.25 13.6458 12.1293 13.887 11.888C14.1284 11.6467 14.2493 11.3507 14.25 11C14.25 10.9618 14.2488 10.9242 14.2459 10.8873L14 11V10.2394C13.9661 10.1957 13.9287 10.1536 13.8879 10.113C13.646 9.87232 13.3501 9.75135 13 9.75001C12.6499 9.74866 12.3542 9.86933 12.113 10.112C11.8716 10.3547 11.7507 10.6507 11.75 11C11.7493 11.3494 11.8701 11.645 12.1121 11.887ZM14 7.89002C13.03 7.745 12.0967 7.45667 11.2 7.02503C9.8501 6.37501 8.69995 5.46668 7.75 4.29999C7.21655 5.59998 6.45435 6.72931 5.46289 7.68799C4.47168 8.64667 3.31738 9.36731 2 9.84998V10C2 12.2333 2.7749 14.125 4.32495 15.675C5.875 17.225 7.7666 18 10 18C12.2334 18 14.125 17.225 15.6751 15.675C17.2251 14.125 18 12.2333 18 10C18 9.72162 17.9878 9.44941 17.9636 9.18329L18 9.16669L19.9995 10.0831C19.9873 11.4335 19.7249 12.7058 19.2119 13.9C18.6887 15.1187 17.9763 16.177 17.075 17.075C16.1736 17.973 15.1152 18.6857 13.8999 19.213C12.6846 19.7404 11.3848 20.0027 10 20C8.6167 20 7.31665 19.7377 6.1001 19.213C4.8833 18.6884 3.82495 17.9757 2.92505 17.075C2.0249 16.1743 1.31275 15.116 0.788087 13.9C0.263429 12.684 0.000733949 11.384 1.52729e-06 10C-0.000730895 8.61603 0.261964 7.31598 0.788087 6.09998C1.31397 4.88404 2.02637 3.82569 2.92505 2.92499C3.82373 2.02436 4.88208 1.31202 6.1001 0.78803C7.31812 0.263982 8.61792 0.00134789 10 5.12154e-06C11.3821 -0.00133765 12.6819 0.261358 13.8999 0.78803C13.9502 0.80982 14.0005 0.831914 14.0503 0.854314C14.0168 0.969732 14 1.09235 14 1.22223V7.89002Z" fill="black"/>
<path d="M15 10V1.11111C15 0.805556 15.098 0.544074 15.294 0.326667C15.49 0.109259 15.7253 0.00037037 16 0H21C21.275 0 21.5105 0.108889 21.7065 0.326667C21.9025 0.544444 22.0003 0.805926 22 1.11111V10L18.5 8.33333L15 10Z" fill="black"/>
</svg>
